<!-- This file is managed by devopsify > update strategy : replace -->

<svg width="560" height="183" viewBox="0 0 560 183" fill="none" xmlns="http://www.w3.org/2000/svg">
<path d="M217.161 96.6292C216.931 96.6306 216.703 96.5862 216.49 96.4987C216.277 96.4113 216.084 96.2824 215.921 96.1196C215.758 95.9569 215.629 95.7634 215.542 95.5505C215.455 95.3376 215.41 95.1094 215.411 94.8792V84.1092C215.41 83.8791 215.455 83.6509 215.542 83.438C215.629 83.2251 215.758 83.0316 215.921 82.8689C216.084 82.7061 216.277 82.5772 216.49 82.4897C216.703 82.4023 216.931 82.3579 217.161 82.3592H242.161C242.392 82.3579 242.62 82.4023 242.833 82.4897C243.046 82.5772 243.239 82.7061 243.402 82.8689C243.565 83.0316 243.694 83.2251 243.781 83.438C243.868 83.6509 243.913 83.8791 243.911 84.1092V108.259C243.909 108.818 243.796 109.37 243.58 109.885C243.364 110.399 243.048 110.866 242.651 111.259C236.251 117.179 228.591 120.469 218.591 120.469C192.791 120.469 184.831 100.099 184.831 85.5492C184.831 71.3892 192.831 50.7292 218.591 50.7292C228.971 50.7292 236.591 54.7992 243.231 61.2992C243.559 61.6369 243.742 62.0888 243.742 62.5592C243.742 63.0296 243.559 63.4815 243.231 63.8192L235.961 71.8192C235.644 72.1361 235.219 72.3222 234.771 72.3407C234.323 72.3592 233.884 72.2088 233.541 71.9192C229.471 68.3292 223.351 65.4192 218.601 65.4192C202.891 65.4192 200.651 80.3592 200.651 85.4192C200.651 90.4792 202.881 106.179 218.601 106.179C222.034 106.166 225.394 105.192 228.301 103.369V96.6792H217.161V96.6292Z" fill="#333333"/>
<path d="M313.771 118.059C313.852 118.226 313.889 118.411 313.877 118.596C313.866 118.781 313.807 118.959 313.707 119.115C313.606 119.271 313.468 119.398 313.304 119.485C313.14 119.571 312.957 119.614 312.771 119.609H298.931C298.41 119.604 297.902 119.444 297.472 119.151C297.041 118.857 296.707 118.442 296.511 117.959L291.661 105.879H271.661L266.861 117.969C266.665 118.454 266.33 118.87 265.897 119.163C265.465 119.457 264.954 119.616 264.431 119.619H250.532C250.348 119.614 250.169 119.565 250.008 119.477C249.847 119.39 249.709 119.265 249.605 119.115C249.501 118.964 249.434 118.791 249.409 118.609C249.384 118.427 249.402 118.243 249.461 118.069L279.241 52.4993C279.432 52.0377 279.755 51.643 280.169 51.3652C280.584 51.0875 281.072 50.9392 281.571 50.9392C282.071 50.9392 282.559 51.0875 282.974 51.3652C283.388 51.643 283.711 52.0377 283.901 52.4993L313.771 118.059ZM276.521 93.7093H286.711L281.711 81.0993L276.521 93.7093Z" fill="#333333"/>
<path d="M376.721 52.3892C376.913 51.9565 377.225 51.5885 377.621 51.3294C378.016 51.0703 378.479 50.9313 378.951 50.9292C379.437 50.9307 379.91 51.0798 380.308 51.3567C380.706 51.6335 381.011 52.0251 381.181 52.4792L404.752 117.949C404.819 118.135 404.841 118.335 404.815 118.531C404.789 118.728 404.716 118.915 404.602 119.077C404.488 119.239 404.336 119.371 404.161 119.462C403.985 119.553 403.79 119.6 403.591 119.599H390.591C390.081 119.593 389.585 119.433 389.169 119.138C388.753 118.843 388.436 118.428 388.261 117.949L377.111 84.1892L361.401 118.919C361.21 119.351 360.897 119.717 360.501 119.975C360.106 120.232 359.644 120.369 359.171 120.369C358.699 120.369 358.237 120.232 357.842 119.975C357.446 119.717 357.133 119.351 356.941 118.919L341.231 84.1892L330.081 117.949C329.907 118.428 329.59 118.843 329.174 119.138C328.758 119.433 328.262 119.593 327.752 119.599H314.752C314.553 119.6 314.358 119.553 314.182 119.462C314.007 119.371 313.855 119.239 313.741 119.077C313.627 118.915 313.554 118.728 313.528 118.531C313.502 118.335 313.524 118.135 313.591 117.949L337.161 52.4792C337.323 52.0391 337.612 51.6569 337.991 51.381C338.37 51.1051 338.823 50.9479 339.291 50.9292C339.778 50.9293 340.254 51.0663 340.666 51.3245C341.078 51.5827 341.409 51.9516 341.621 52.3892L359.181 90.3892L376.721 52.3892Z" fill="#333333"/>
<path d="M467.512 52.3892C467.703 51.9565 468.015 51.5885 468.411 51.3294C468.806 51.0703 469.269 50.9313 469.741 50.9292C470.227 50.9307 470.7 51.0798 471.098 51.3567C471.496 51.6335 471.801 52.0251 471.971 52.4792L495.541 117.949C495.609 118.135 495.631 118.335 495.605 118.531C495.579 118.728 495.506 118.915 495.392 119.077C495.278 119.239 495.126 119.371 494.951 119.462C494.775 119.553 494.58 119.6 494.382 119.599H481.382C480.871 119.593 480.375 119.433 479.959 119.138C479.543 118.843 479.226 118.428 479.051 117.949L467.861 84.2092L452.151 118.939C451.96 119.371 451.647 119.737 451.251 119.995C450.856 120.252 450.394 120.389 449.921 120.389C449.449 120.389 448.987 120.252 448.592 119.995C448.196 119.737 447.883 119.371 447.692 118.939L431.981 84.2092L420.861 117.969C420.687 118.448 420.37 118.863 419.954 119.158C419.538 119.453 419.042 119.613 418.532 119.619H405.532C405.333 119.62 405.138 119.573 404.962 119.482C404.787 119.391 404.635 119.259 404.521 119.097C404.407 118.935 404.334 118.748 404.308 118.551C404.282 118.355 404.304 118.155 404.371 117.969L427.941 52.4992C428.103 52.0591 428.392 51.6769 428.771 51.401C429.15 51.1251 429.603 50.9679 430.071 50.9492C430.558 50.9493 431.034 51.0863 431.446 51.3445C431.858 51.6027 432.189 51.9716 432.401 52.4092L449.961 90.4092L467.512 52.3892Z" fill="#333333"/>
<path d="M559.572 118.059C559.652 118.226 559.689 118.411 559.677 118.595C559.666 118.78 559.607 118.959 559.507 119.115C559.406 119.271 559.268 119.398 559.104 119.484C558.94 119.571 558.757 119.614 558.572 119.609H544.731C544.21 119.604 543.702 119.444 543.272 119.15C542.841 118.857 542.507 118.442 542.312 117.959L537.452 105.879H517.452L512.601 118.009C512.406 118.492 512.072 118.907 511.641 119.2C511.211 119.494 510.703 119.654 510.182 119.659H496.322C496.138 119.653 495.959 119.605 495.798 119.517C495.637 119.429 495.499 119.305 495.395 119.154C495.291 119.004 495.224 118.83 495.199 118.649C495.174 118.467 495.192 118.282 495.252 118.109L525.031 52.5391C525.222 52.0775 525.545 51.6828 525.959 51.405C526.374 51.1273 526.862 50.979 527.361 50.979C527.861 50.979 528.349 51.1273 528.764 51.405C529.178 51.6828 529.501 52.0775 529.692 52.5391L559.572 118.059ZM522.322 93.7091H532.502L527.502 81.0991L522.322 93.7091Z" fill="#333333"/>
<path d="M312.801 119.619H314.741L313.681 118.439L312.801 119.619Z" fill="#333333"/>
<path d="M403.591 119.619H405.531L404.561 118.499L403.591 119.619Z" fill="#333333"/>
<path d="M494.382 119.619H496.321L495.351 118.499L494.382 119.619Z" fill="#333333"/>
<path d="M36.1715 138.01C25.7115 138.01 17.9915 134.87 13.9115 128.78C8.34151 120.47 10.4115 107.98 19.7315 93.5899C28.6715 79.7899 43.3315 65.6599 61.0015 53.8099C98.6615 28.5399 137.002 21.8999 148.232 38.6699C159.482 55.4399 138.801 88.3799 101.142 113.67C83.4715 125.53 64.8415 133.73 48.6815 136.77C44.5587 137.569 40.3708 137.984 36.1715 138.01ZM126.172 34.2499C109.922 34.2499 86.2415 42.6799 63.7215 57.7899C46.5815 69.2899 32.4015 82.9299 23.8015 96.1999C15.6615 108.69 13.5215 119.59 17.8615 126.1C22.2015 132.61 33.1315 134.77 47.7615 132.02C63.3015 129.09 81.2915 121.15 98.4415 109.65C132.692 86.6499 153.652 55.3899 144.222 41.3299C141.032 36.5299 134.582 34.2399 126.132 34.2399L126.172 34.2499Z" fill="url(#paint0_linear_79_51)"/>
<path d="M65.9115 171.1C60.6797 171.173 55.523 169.851 50.9715 167.27C39.2015 160.47 33.2115 145.5 34.1015 125.1C34.9715 105.1 42.3315 82.2398 54.8215 60.5998C67.3115 38.9598 83.4815 21.0998 100.321 10.4098C117.541 -0.590191 133.511 -2.86019 145.321 3.92981C157.131 10.7198 163.041 25.6998 162.151 46.0998C161.281 66.0998 153.921 88.9598 141.431 110.6C128.941 132.24 112.781 150.1 95.9315 160.79C85.2015 167.63 74.9615 171.1 65.9115 171.1ZM130.321 3.89981C122.021 3.89981 112.471 7.16981 102.321 13.6098C85.9815 24.0198 70.2715 41.3798 58.0815 62.4998C45.8915 83.6198 38.7115 105.9 37.8615 125.26C37.0315 144.17 42.3515 157.92 52.8615 163.97C63.3715 170.02 77.8615 167.75 93.8615 157.58C110.201 147.17 125.911 129.81 138.101 108.69C163.101 65.4698 165.401 19.9598 143.351 7.21981C139.379 4.97865 134.882 3.83292 130.321 3.89981Z" fill="url(#paint1_linear_79_51)"/>
<path d="M24.1515 102.92C11.6715 102.92 2.39151 100.25 0.551507 93.8199C-1.08849 88.0999 3.8615 81.2999 14.7815 74.2499C24.8515 67.7599 38.9415 61.7499 54.4615 57.3199C69.9815 52.8899 85.1515 50.5499 97.1015 50.7299C110.102 50.9299 117.882 54.0799 119.522 59.8299C121.162 65.5799 116.241 72.3499 105.291 79.3999C95.2215 85.8899 81.1315 91.8999 65.6115 96.3299C51.4015 100.4 36.2715 102.92 24.1515 102.92ZM95.7415 55.2199C84.4015 55.2199 70.2515 57.4899 55.7415 61.6399C40.6415 65.9599 26.9715 71.7799 17.2615 78.0299C8.62151 83.5699 3.8615 89.0999 4.8615 92.5899C6.9115 99.7699 31.8615 101.3 64.3615 92.0199C79.4615 87.6999 93.1315 81.8799 102.841 75.6299C111.432 70.0899 116.162 64.5199 115.182 61.0699C114.182 57.6299 107.242 55.3899 97.0115 55.2299H95.7215L95.7415 55.2199Z" fill="url(#paint2_linear_79_51)"/>
<path d="M306.763 150.364C306.763 151.911 306.456 153.218 305.843 154.284C305.23 155.324 304.43 156.164 303.443 156.804C302.456 157.444 301.323 157.898 300.043 158.164C298.763 158.431 297.47 158.564 296.163 158.564H291.923V169.684H289.363V142.484H296.323C297.71 142.484 299.03 142.631 300.283 142.924C301.563 143.218 302.683 143.684 303.643 144.324C304.603 144.938 305.363 145.751 305.923 146.764C306.483 147.751 306.763 148.951 306.763 150.364ZM303.923 150.404C303.923 149.391 303.736 148.524 303.363 147.804C302.99 147.058 302.47 146.458 301.803 146.004C301.136 145.524 300.363 145.178 299.483 144.964C298.603 144.724 297.643 144.604 296.603 144.604H291.923V156.444H296.163C297.096 156.444 298.03 156.364 298.963 156.204C299.896 156.044 300.723 155.738 301.443 155.284C302.19 154.831 302.79 154.218 303.243 153.444C303.696 152.671 303.923 151.658 303.923 150.404ZM326.458 169.684L323.338 161.604H311.338L308.298 169.684H305.698L316.298 142.124H318.498L329.298 169.684H326.458ZM317.338 145.724H317.258L312.098 159.524H322.578L317.338 145.724ZM350.958 149.524C350.958 150.511 350.798 151.378 350.478 152.124C350.158 152.871 349.718 153.524 349.158 154.084C348.598 154.644 347.932 155.111 347.158 155.484C346.412 155.831 345.652 156.098 344.878 156.284V156.364C345.785 156.791 346.505 157.324 347.038 157.964C347.572 158.578 348.052 159.471 348.478 160.644C348.772 161.418 349.052 162.191 349.318 162.964C349.585 163.711 349.865 164.431 350.158 165.124C350.532 166.084 350.918 166.778 351.318 167.204C351.745 167.604 352.278 167.804 352.918 167.804C353.452 167.804 353.972 167.698 354.478 167.484L354.798 169.524C354.452 169.684 354.025 169.804 353.518 169.884C353.038 169.991 352.612 170.044 352.238 170.044C350.985 170.044 350.025 169.698 349.358 169.004C348.718 168.284 348.172 167.324 347.718 166.124C347.425 165.351 347.118 164.538 346.798 163.684C346.505 162.804 346.212 161.964 345.918 161.164C345.652 160.444 345.358 159.831 345.038 159.324C344.745 158.791 344.385 158.364 343.958 158.044C343.532 157.724 343.025 157.484 342.438 157.324C341.878 157.164 341.212 157.084 340.438 157.084H336.238V169.684H333.678V142.484H341.078C342.252 142.484 343.425 142.604 344.598 142.844C345.798 143.084 346.865 143.471 347.798 144.004C348.732 144.538 349.492 145.258 350.078 146.164C350.665 147.071 350.958 148.191 350.958 149.524ZM348.118 149.724C348.118 148.844 347.945 148.084 347.598 147.444C347.278 146.804 346.812 146.271 346.198 145.844C345.585 145.418 344.852 145.111 343.998 144.924C343.172 144.711 342.265 144.604 341.278 144.604H336.238V155.084H341.318C342.252 155.084 343.132 154.991 343.958 154.804C344.785 154.591 345.505 154.284 346.118 153.884C346.732 153.458 347.212 152.898 347.558 152.204C347.932 151.511 348.118 150.684 348.118 149.724ZM363.758 169.684V144.644H354.278V142.484H375.758V144.644H366.318V169.684H363.758ZM412.284 155.964C412.284 158.471 411.951 160.631 411.284 162.444C410.644 164.231 409.764 165.711 408.644 166.884C407.551 168.031 406.271 168.884 404.804 169.444C403.338 169.978 401.778 170.244 400.124 170.244C398.471 170.244 396.898 169.978 395.404 169.444C393.938 168.884 392.644 168.031 391.524 166.884C390.404 165.738 389.511 164.271 388.844 162.484C388.204 160.698 387.884 158.564 387.884 156.084C387.884 153.684 388.204 151.591 388.844 149.804C389.511 148.018 390.404 146.551 391.524 145.404C392.644 144.231 393.938 143.364 395.404 142.804C396.898 142.218 398.458 141.924 400.084 141.924C401.738 141.924 403.298 142.218 404.764 142.804C406.258 143.364 407.551 144.231 408.644 145.404C409.764 146.551 410.644 148.004 411.284 149.764C411.951 151.524 412.284 153.591 412.284 155.964ZM409.444 156.124C409.444 154.178 409.218 152.458 408.764 150.964C408.311 149.471 407.671 148.218 406.844 147.204C406.044 146.191 405.071 145.431 403.924 144.924C402.778 144.418 401.511 144.164 400.124 144.164C397.244 144.164 394.964 145.178 393.284 147.204C391.604 149.231 390.764 152.204 390.764 156.124C390.764 160.098 391.604 163.071 393.284 165.044C394.964 167.018 397.244 168.004 400.124 168.004C401.511 168.004 402.778 167.764 403.924 167.284C405.071 166.778 406.044 166.031 406.844 165.044C407.671 164.031 408.311 162.791 408.764 161.324C409.218 159.831 409.444 158.098 409.444 156.124ZM418.403 169.684V142.484H433.283V144.644H420.963V155.244H430.643V157.404H420.963V169.684H418.403ZM470.493 162.004C470.493 163.391 470.199 164.578 469.613 165.564C469.026 166.524 468.226 167.311 467.213 167.924C466.226 168.538 465.079 168.991 463.773 169.284C462.466 169.551 461.079 169.684 459.613 169.684H448.253V142.484H458.053C459.333 142.484 460.573 142.604 461.773 142.844C462.999 143.058 464.066 143.444 464.973 144.004C465.906 144.538 466.653 145.244 467.213 146.124C467.773 146.978 468.053 148.044 468.053 149.324C468.053 150.924 467.613 152.204 466.733 153.164C465.879 154.098 464.733 154.818 463.293 155.324V155.404C464.359 155.538 465.333 155.764 466.213 156.084C467.093 156.378 467.853 156.804 468.493 157.364C469.133 157.898 469.626 158.551 469.973 159.324C470.319 160.071 470.493 160.964 470.493 162.004ZM464.253 161.604C464.253 160.324 463.746 159.404 462.733 158.844C461.746 158.284 460.253 158.004 458.253 158.004H454.053V165.404H458.733C460.493 165.404 461.853 165.138 462.813 164.604C463.773 164.044 464.253 163.044 464.253 161.604ZM462.013 150.084C462.013 148.911 461.599 148.071 460.773 147.564C459.973 147.031 458.786 146.764 457.213 146.764H454.053V153.964H457.653C458.879 153.964 459.906 153.671 460.733 153.084C461.586 152.471 462.013 151.471 462.013 150.084ZM497.098 165.524C495.978 167.204 494.564 168.418 492.858 169.164C491.151 169.884 489.204 170.244 487.018 170.244C484.938 170.244 483.071 169.924 481.418 169.284C479.764 168.618 478.351 167.671 477.178 166.444C476.031 165.218 475.151 163.738 474.538 162.004C473.924 160.271 473.618 158.324 473.618 156.164C473.618 153.951 473.924 151.964 474.538 150.204C475.151 148.444 476.031 146.951 477.178 145.724C478.351 144.498 479.751 143.564 481.378 142.924C483.031 142.258 484.898 141.924 486.978 141.924C488.978 141.924 490.791 142.284 492.418 143.004C494.071 143.724 495.458 144.924 496.578 146.604L492.218 149.404C491.604 148.551 490.871 147.871 490.018 147.364C489.164 146.858 488.098 146.604 486.818 146.604C484.578 146.604 482.858 147.404 481.658 149.004C480.458 150.604 479.858 152.911 479.858 155.924C479.858 158.884 480.484 161.231 481.738 162.964C483.018 164.698 484.884 165.564 487.338 165.564C488.511 165.564 489.578 165.338 490.538 164.884C491.498 164.431 492.284 163.738 492.898 162.804L497.098 165.524ZM522.887 167.524C521.233 168.484 519.58 169.178 517.927 169.604C516.273 170.031 514.393 170.244 512.287 170.244C510.153 170.244 508.247 169.924 506.567 169.284C504.887 168.618 503.46 167.671 502.287 166.444C501.113 165.218 500.207 163.738 499.567 162.004C498.953 160.244 498.647 158.284 498.647 156.124C498.647 153.911 498.953 151.924 499.567 150.164C500.207 148.404 501.1 146.924 502.247 145.724C503.42 144.498 504.847 143.564 506.527 142.924C508.207 142.258 510.087 141.924 512.167 141.924C514.273 141.924 516.14 142.284 517.767 143.004C519.42 143.724 520.807 144.924 521.927 146.604L517.527 149.404C516.913 148.551 516.18 147.871 515.327 147.364C514.473 146.858 513.353 146.604 511.967 146.604C509.593 146.604 507.82 147.431 506.647 149.084C505.473 150.738 504.887 153.018 504.887 155.924C504.887 162.484 507.5 165.764 512.727 165.764C513.58 165.764 514.393 165.711 515.167 165.604C515.967 165.471 516.673 165.231 517.287 164.884V160.284H511.807V155.684H522.887V167.524ZM552.47 169.684L546.91 159.964H546.83L541.55 169.684H535.27L543.55 156.124L535.47 142.484H542.23L547.71 152.004H547.79L552.99 142.484H559.27L550.99 156.124L559.47 169.684H552.47Z" fill="#333333"/>
<defs>
<linearGradient id="paint0_linear_79_51" x1="43.8815" y1="148.17" x2="118.292" y2="19.2999" gradientUnits="userSpaceOnUse">
<stop stop-color="#095A5A"/>
<stop offset="0.12" stop-color="#0C635D"/>
<stop offset="0.31" stop-color="#167B65"/>
<stop offset="0.56" stop-color="#24A373"/>
<stop offset="0.75" stop-color="#32C77F"/>
<stop offset="1" stop-color="#43FDA2"/>
</linearGradient>
<linearGradient id="paint1_linear_79_51" x1="50.9715" y1="167.27" x2="145.281" y2="3.92982" gradientUnits="userSpaceOnUse">
<stop stop-color="#095A5A"/>
<stop offset="0.12" stop-color="#0C635D"/>
<stop offset="0.31" stop-color="#167B65"/>
<stop offset="0.56" stop-color="#24A373"/>
<stop offset="0.75" stop-color="#32C77F"/>
<stop offset="1" stop-color="#43FDA2"/>
</linearGradient>
<linearGradient id="paint2_linear_79_51" x1="36.5815" y1="117.45" x2="83.4915" y2="36.1999" gradientUnits="userSpaceOnUse">
<stop stop-color="#095A5A"/>
<stop offset="0.12" stop-color="#0C635D"/>
<stop offset="0.31" stop-color="#167B65"/>
<stop offset="0.56" stop-color="#24A373"/>
<stop offset="0.75" stop-color="#32C77F"/>
<stop offset="1" stop-color="#43FDA2"/>
</linearGradient>
</defs>
</svg>
